<svg xmlns="http://www.w3.org/2000/svg" xmlns:xlink="http://www.w3.org/1999/xlink" width="339.414" height="222" viewBox="0 0 339.414 222">
  <defs>
    <radialGradient id="radial-gradient" cx="0.5" cy="0.5" r="0.5" gradientUnits="objectBoundingBox">
      <stop offset="0" stop-color="#7f3"/>
      <stop offset="1" stop-color="#1e400d"/>
    </radialGradient>
  </defs>
  <text id="Источники" transform="translate(0 23)" fill="#666f80" font-size="24" font-family="Montserrat-SemiBold, Montserrat" font-weight="600" letter-spacing="0.02em"><tspan x="0" y="0">ОТЧЕТ ПО ДОКТОРАМ</tspan></text>
  <g id="Сгруппировать_43" data-name="Сгруппировать 43" transform="translate(-1270 -682)">
    <circle id="Эллипс_28" data-name="Эллипс 28" cx="84" cy="84" r="84" transform="translate(1272 736)" fill="#666f80" opacity="0.05"/>
    <path id="Контур_47" data-name="Контур 47" d="M84,0A84,84,0,1,1,0,84H84Z" transform="translate(1272 736)" opacity="0.3" fill="url(#radial-gradient)"/>
    <g id="Контур_48" data-name="Контур 48" transform="translate(1272 736)" fill="none" stroke-linecap="round" stroke-dasharray="396 1000">
      <path d="M84,0A84,84,0,1,1,0,84H84Z" stroke="none"/>
      <path d="M 84 0 C 84.30863952636719 0 84.61320495605469 0.0016326904296875 84.92105865478516 0.00494384765625 C 90.39854431152344 0.0638275146484375 95.75075531005859 0.6469879150390625 100.9289321899414 1.706588745117188 C 106.3971405029297 2.825546264648438 111.6717987060547 4.475814819335938 116.6965942382813 6.60113525390625 C 121.7214050292969 8.726455688476563 126.4963836669922 11.32679748535156 130.9652099609375 14.34588623046875 C 133.2547149658203 15.89263916015625 135.4641723632813 17.54957580566406 137.5854034423828 19.30857849121094 C 141.6247711181641 22.65803527832031 145.3419647216797 26.37522888183594 148.6914215087891 30.41459655761719 C 150.4504241943359 32.53582763671875 152.1073608398438 34.74528503417969 153.6541137695313 37.0347900390625 C 156.6732025146484 41.50361633300781 159.2735443115234 46.27858734130859 161.3988647460938 51.30340576171875 C 163.5241851806641 56.32820129394531 165.1744537353516 61.60286712646484 166.2934112548828 67.07106781005859 C 167.3530120849609 72.24924468994141 167.9361724853516 77.60145568847656 167.9950561523438 83.07894134521484 C 167.9983673095703 83.38679504394531 168 83.69136047363281 168 84 C 168 84 168 84 168 84 C 168 84.30863952636719 167.9983673095703 84.61320495605469 167.9950561523438 84.92105865478516 C 167.9361724853516 90.39854431152344 167.3530120849609 95.75075531005859 166.2934112548828 100.9289321899414 C 165.1744537353516 106.3971405029297 163.5241851806641 111.6717987060547 161.3988647460938 116.6965942382813 C 159.2735443115234 121.7214050292969 156.6732025146484 126.4963836669922 153.6541137695313 130.9652099609375 C 152.1073608398438 133.2547149658203 150.4504241943359 135.4641723632813 148.6914215087891 137.5854034423828 C 145.3419647216797 141.6247711181641 141.6247711181641 145.3419647216797 137.5854034423828 148.6914215087891 C 135.4641723632813 150.4504241943359 133.2547149658203 152.1073608398438 130.9652099609375 153.6541137695313 C 126.4963836669922 156.6732025146484 121.7214050292969 159.2735443115234 116.6965942382813 161.3988647460938 C 111.6717987060547 163.5241851806641 106.3971405029297 165.1744537353516 100.9289321899414 166.2934112548828 C 95.75075531005859 167.3530120849609 90.39854431152344 167.9361724853516 84.92105865478516 167.9950561523438 C 84.61320495605469 167.9983673095703 84.30863952636719 168 84 168 C 84 168 84 168 84 168 C 84 168 84 168 84 168 C 83.69136047363281 168 83.38679504394531 167.9983673095703 83.07894134521484 167.9950561523438 C 77.60145568847656 167.9361724853516 72.24924468994141 167.3530120849609 67.07106781005859 166.2934112548828 C 61.60286712646484 165.1744537353516 56.32820129394531 163.5241851806641 51.30340576171875 161.3988647460938 C 46.27858734130859 159.2735443115234 41.50361633300781 156.6732025146484 37.0347900390625 153.6541137695313 C 34.74528503417969 152.1073608398438 32.53582763671875 150.4504241943359 30.41459655761719 148.6914215087891 C 26.37522888183594 145.3419647216797 22.65803527832031 141.6247711181641 19.30857849121094 137.5854034423828 C 17.54957580566406 135.4641723632813 15.89263916015625 133.2547149658203 14.34588623046875 130.9652099609375 C 11.32679748535156 126.4963836669922 8.726455688476563 121.7214050292969 6.60113525390625 116.6965942382813 C 4.475814819335938 111.6717987060547 2.825546264648438 106.3971405029297 1.706588745117188 100.9289321899414 C 0.716644287109375 96.0911865234375 0.1425628662109375 91.10173797607422 0.023345947265625 86 L 0.023345947265625 86 C 0.0078277587890625 85.33548736572266 0 84.66824340820313 0 84 L 2 84 C 2 89.56491088867188 2.560516357421875 95.12572479248047 3.665969848632813 100.5279769897461 C 4.743133544921875 105.7919311523438 6.35040283203125 110.9697036743164 8.443130493164063 115.9174957275391 C 10.49806213378906 120.7759094238281 13.04161071777344 125.4619750976563 16.00311279296875 129.8455963134766 C 18.93684387207031 134.1880645751953 22.30606079101563 138.2715911865234 26.01724243164063 141.9827575683594 C 29.72840881347656 145.6939392089844 33.81193542480469 149.0631561279297 38.15440368652344 151.9968872070313 C 42.53802490234375 154.9583892822266 47.22409057617188 157.5019378662109 52.08249664306641 159.5568695068359 C 57.03029632568359 161.6495971679688 62.20806884765625 163.2568664550781 67.47202301025391 164.3340301513672 C 72.87427520751953 165.4394836425781 78.43508911132813 166 84 166 C 89.56491088867188 166 95.12572479248047 165.4394836425781 100.5279769897461 164.3340301513672 C 105.7919311523438 163.2568664550781 110.9697036743164 161.6495971679688 115.9174957275391 159.5568695068359 C 120.7759094238281 157.5019378662109 125.4619750976563 154.9583892822266 129.8455963134766 151.9968872070313 C 134.1880645751953 149.0631561279297 138.2715911865234 145.6939392089844 141.9827575683594 141.9827575683594 C 145.6939392089844 138.2715911865234 149.0631561279297 134.1880645751953 151.9968872070313 129.8455963134766 C 154.9583892822266 125.4619750976563 157.5019378662109 120.7759094238281 159.5568695068359 115.9174957275391 C 161.6495971679688 110.9697036743164 163.2568664550781 105.7919311523438 164.3340301513672 100.5279769897461 C 165.4394836425781 95.12572479248047 166 89.56491088867188 166 84 C 166 78.43508911132813 165.4394836425781 72.87427520751953 164.3340301513672 67.47202301025391 C 163.2568664550781 62.20806884765625 161.6495971679688 57.03029632568359 159.5568695068359 52.08249664306641 C 157.5019378662109 47.22409057617188 154.9583892822266 42.53802490234375 151.9968872070313 38.15440368652344 C 149.0631561279297 33.81193542480469 145.6939392089844 29.72840881347656 141.9827575683594 26.01724243164063 C 138.2715911865234 22.30606079101563 134.1880645751953 18.93684387207031 129.8455963134766 16.00311279296875 C 125.4619750976563 13.04161071777344 120.7759094238281 10.49806213378906 115.9174957275391 8.443130493164063 C 110.9697036743164 6.35040283203125 105.7919311523438 4.743133544921875 100.5279769897461 3.665969848632813 C 95.12572479248047 2.560516357421875 89.56491088867188 2 84 2 L 84 0 Z" stroke="none" fill="#61e420"/>
    </g>
  </g>
  <path id="Контур_52" data-name="Контур 52" d="M3175,320l8,8-8,8" transform="translate(-2845 -314)" fill="none" stroke="#666f80" stroke-linecap="round" stroke-width="2"/>
  <g id="Сгруппировать_42" data-name="Сгруппировать 42" transform="translate(-110 -629)">
    <text id="_75_" data-name="75%" transform="translate(312 759)" fill="#fff" font-size="32" font-family="Montserrat-SemiBold, Montserrat" font-weight="600" letter-spacing="0.02em"><tspan x="0" y="0">75%</tspan></text>
    <text id="_33_" data-name="33%" transform="translate(424 753)" fill="#61e420" font-size="16" font-family="Montserrat-SemiBold, Montserrat" letter-spacing="0.02em" font-weight="600"><tspan x="-32.784" y="0">33%</tspan></text>
    <text id="Грозный" transform="translate(311 783)" fill="#fff" font-size="16" font-family="Montserrat-SemiBold, Montserrat" letter-spacing="0.02em" font-weight="600"><tspan x="0" y="0">Офтальмология</tspan></text>
    <g id="Компонент_1_6" data-name="Компонент 1 – 6" transform="translate(448 760) rotate(180)">
      <path id="Контур_25" data-name="Контур 25" d="M2495,712v24" transform="translate(-2487 -712)" fill="none" stroke="#61e420" stroke-linecap="round" stroke-width="1"/>
      <path id="Контур_26" data-name="Контур 26" d="M2503,728l-8,8-8-8" transform="translate(-2487 -712)" fill="none" stroke="#61e420" stroke-linecap="round" stroke-width="1"/>
    </g>
  </g>
</svg>
