<svg xmlns="http://www.w3.org/2000/svg" width="337.414" height="222" viewBox="0 0 337.414 222">
  <g id="Акции" transform="translate(-792 -682)">
    <text id="акции-2" data-name="акции" transform="translate(792 705)" fill="#666f80" font-size="24" font-family="Montserrat-SemiBold, Montserrat" font-weight="600" letter-spacing="0.02em"><tspan x="0" y="0">БДДС</tspan></text>
    <g id="Свечи">
      <rect id="Прямоугольник_13" data-name="Прямоугольник 13" width="336" height="176" rx="16" transform="translate(792 728)" fill="#fff" opacity="0.01"/>
      <g id="Сгруппировать_37" data-name="Сгруппировать 37">
        <g id="Сгруппировать_36" data-name="Сгруппировать 36">
          <rect id="Прямоугольник_14" data-name="Прямоугольник 14" width="8" height="48" rx="2" transform="translate(796 792)" fill="#61e420"/>
          <rect id="Прямоугольник_14-2" data-name="Прямоугольник 14" width="8" height="32" rx="2" transform="translate(812 800)" fill="#ff3a33"/>
          <rect id="Прямоугольник_14-3" data-name="Прямоугольник 14" width="8" height="64" rx="2" transform="translate(828 796)" fill="#61e420"/>
          <rect id="Прямоугольник_14-4" data-name="Прямоугольник 14" width="8" height="48" rx="2" transform="translate(844 804)" fill="#ff3a33"/>
          <rect id="Прямоугольник_14-5" data-name="Прямоугольник 14" width="8" height="45" rx="2" transform="translate(860 784)" fill="#61e420"/>
          <rect id="Прямоугольник_14-6" data-name="Прямоугольник 14" width="8" height="26" rx="2" transform="translate(876 824)" fill="#ff3a33"/>
          <rect id="Прямоугольник_14-7" data-name="Прямоугольник 14" width="8" height="48" rx="2" transform="translate(892 792)" fill="#61e420"/>
          <rect id="Прямоугольник_14-8" data-name="Прямоугольник 14" width="8" height="21" rx="2" transform="translate(908 812)" fill="#ff3a33"/>
          <rect id="Прямоугольник_14-9" data-name="Прямоугольник 14" width="8" height="45" rx="2" transform="translate(924 800)" fill="#61e420"/>
          <rect id="Прямоугольник_14-10" data-name="Прямоугольник 14" width="8" height="44" rx="2" transform="translate(940 768)" fill="#63e423"/>
          <rect id="Прямоугольник_14-11" data-name="Прямоугольник 14" width="8" height="53" rx="2" transform="translate(956 752)" fill="#61e420"/>
          <rect id="Прямоугольник_14-12" data-name="Прямоугольник 14" width="8" height="56" rx="2" transform="translate(972 768)" fill="#ff3a33"/>
          <rect id="Прямоугольник_14-13" data-name="Прямоугольник 14" width="8" height="37" rx="2" transform="translate(988 800)" fill="#ff3c35"/>
          <rect id="Прямоугольник_14-14" data-name="Прямоугольник 14" width="8" height="24" rx="2" transform="translate(1004 816)" fill="#ff3a33"/>
          <rect id="Прямоугольник_14-15" data-name="Прямоугольник 14" width="8" height="37" rx="2" transform="translate(1020 792)" fill="#61e420"/>
          <rect id="Прямоугольник_14-16" data-name="Прямоугольник 14" width="8" height="45" rx="2" transform="translate(1036 784)" fill="#63e423"/>
          <rect id="Прямоугольник_14-17" data-name="Прямоугольник 14" width="8" height="37" rx="2" transform="translate(1052 803)" fill="#ff3a33"/>
          <rect id="Прямоугольник_14-18" data-name="Прямоугольник 14" width="8" height="34" rx="2" transform="translate(1068 814)" fill="#61e420"/>
          <rect id="Прямоугольник_14-19" data-name="Прямоугольник 14" width="8" height="26" rx="2" transform="translate(1084 803)" fill="#61e420"/>
          <rect id="Прямоугольник_14-20" data-name="Прямоугольник 14" width="8" height="28" rx="2" transform="translate(1100 816)" fill="#ff3a33"/>
          <rect id="Прямоугольник_14-21" data-name="Прямоугольник 14" width="8" height="80" rx="2" transform="translate(1116 760)" fill="#61e420"/>
        </g>
        <g id="Сгруппировать_34" data-name="Сгруппировать 34">
          <path id="Контур_27" data-name="Контур 27" d="M2866.615,792h-8" transform="translate(-2054.615 24)" fill="none" stroke="#707070" stroke-width="1" opacity="0.3"/>
          <path id="Контур_28" data-name="Контур 28" d="M2866.615,792h-8" transform="translate(-2038.615 32)" fill="none" stroke="#707070" stroke-width="1" opacity="0.3"/>
          <path id="Контур_29" data-name="Контур 29" d="M2866.615,792h-8" transform="translate(-2022.615 24)" fill="none" stroke="#707070" stroke-width="1" opacity="0.3"/>
          <path id="Контур_30" data-name="Контур 30" d="M2866.615,792h-8" transform="translate(-2006.615 16)" fill="none" stroke="#707070" stroke-width="1" opacity="0.3"/>
          <path id="Контур_31" data-name="Контур 31" d="M2866.615,792h-8" transform="translate(-1990.615 35)" fill="none" stroke="#707070" stroke-width="1" opacity="0.3"/>
          <path id="Контур_32" data-name="Контур 32" d="M2866.615,792h-8" transform="translate(-1974.615 45)" fill="none" stroke="#707070" stroke-width="1" opacity="0.3"/>
          <path id="Контур_36" data-name="Контур 36" d="M2866.615,792h-8" transform="translate(-1958.615 38)" fill="none" stroke="#707070" stroke-width="1" opacity="0.3"/>
          <path id="Контур_33" data-name="Контур 33" d="M2866.614,792h-8" transform="translate(-1942.615 24)" fill="none" stroke="#707070" stroke-width="1" opacity="0.3"/>
          <path id="Контур_34" data-name="Контур 34" d="M2866.615,792h-8" transform="translate(-1926.615 16)" fill="none" stroke="#707070" stroke-width="1" opacity="0.3"/>
          <path id="Контур_35" data-name="Контур 35" d="M2866.615,792h-8" transform="translate(-1910.615 -16)" fill="none" stroke="#707070" stroke-width="1" opacity="0.3"/>
          <path id="Контур_37" data-name="Контур 37" d="M2866.615,792h-8" transform="translate(-1894.615 4)" fill="none" stroke="#707070" stroke-width="1" opacity="0.3"/>
          <path id="Контур_38" data-name="Контур 38" d="M2866.615,792h-8" transform="translate(-1878.615 21)" fill="none" stroke="#707070" stroke-width="1" opacity="0.3"/>
          <path id="Контур_39" data-name="Контур 39" d="M2866.615,792h-8" transform="translate(-1862.615 32)" fill="none" stroke="#707070" stroke-width="1" opacity="0.3"/>
          <path id="Контур_40" data-name="Контур 40" d="M2866.615,792h-8" transform="translate(-1846.615 34)" fill="none" stroke="#707070" stroke-width="1" opacity="0.3"/>
          <path id="Контур_41" data-name="Контур 41" d="M2866.615,792h-8" transform="translate(-1830.615 4)" fill="none" stroke="#707070" stroke-width="1" opacity="0.3"/>
          <path id="Контур_42" data-name="Контур 42" d="M2866.615,792h-8" transform="translate(-1814.615 32)" fill="none" stroke="#707070" stroke-width="1" opacity="0.3"/>
          <path id="Контур_43" data-name="Контур 43" d="M2866.615,792h-8" transform="translate(-1798.615 28)" fill="none" stroke="#707070" stroke-width="1" opacity="0.3"/>
          <path id="Контур_44" data-name="Контур 44" d="M2866.615,792h-8" transform="translate(-1782.615 32)" fill="none" stroke="#707070" stroke-width="1" opacity="0.3"/>
          <path id="Контур_45" data-name="Контур 45" d="M2866.615,792h-8" transform="translate(-1766.615 27)" fill="none" stroke="#707070" stroke-width="1" opacity="0.3"/>
          <path id="Контур_46" data-name="Контур 46" d="M2866.615,792h-8" transform="translate(-1750.615 32)" fill="none" stroke="#707070" stroke-width="1" opacity="0.3"/>
        </g>
      </g>
    </g>
    <g id="Проценты" transform="translate(-24)">
      <g id="Сгруппировать_33" data-name="Сгруппировать 33">
        <text id="_5_" data-name="5%" transform="translate(1096 703)" fill="#ff3a33" font-size="16" font-family="Montserrat-SemiBold, Montserrat" letter-spacing="0.02em" font-weight="600"><tspan x="-23.264" y="0">5%</tspan></text>
        <path id="Контур_22" data-name="Контур 22" d="M431,152l4,4,4-4Z" transform="translate(673 544)" fill="#ff3a33"/>
      </g>
      <g id="Сгруппировать_32" data-name="Сгруппировать 32" transform="translate(7)">
        <text id="_16_" data-name="16%" transform="translate(1025 703)" fill="#5fe61b" font-size="16" font-family="Montserrat-SemiBold, Montserrat" letter-spacing="0.02em" font-weight="600"><tspan x="-30.208" y="0">16%</tspan></text>
        <path id="Контур_23" data-name="Контур 23" d="M431,152l4,4,4-4Z" transform="translate(1472 852) rotate(180)" fill="#61e420"/>
      </g>
    </g>
  </g>
  <path id="Контур_53" data-name="Контур 53" d="M3175,320l8,8-8,8" transform="translate(-2847 -314)" fill="none" stroke="#666f80" stroke-linecap="round" stroke-width="2"/>
</svg>

