<svg id="Компонент_4_1" data-name="Компонент 4 – 1" xmlns="http://www.w3.org/2000/svg" width="36" height="33.391" viewBox="0 0 36 33.391">
  <text id="_1" data-name="1" transform="translate(13.5 27.196)" fill="#e6cb1b" font-size="24" font-family="Montserrat-SemiBold, Montserrat" font-weight="600" letter-spacing="0.02em"><tspan x="0" y="0">1</tspan></text>
  <g id="Многоугольник_1" data-name="Многоугольник 1" fill="rgba(102,111,128,0)">
    <path d="M 23.35758018493652 32.39130020141602 L 12.64241981506348 32.39130020141602 C 9.624159812927246 32.39130020141602 6.955289840698242 30.46738052368164 6.001279830932617 27.60386085510254 L 2.823430061340332 18.0652904510498 C 2.34539008140564 16.63042068481445 2.341429948806763 15.11223983764648 2.811969995498657 13.67489051818848 C 3.282510042190552 12.23754024505615 4.183499813079834 11.01562023162842 5.417520046234131 10.14122009277344 L 13.95296001434326 4.093220233917236 C 15.14256954193115 3.250290155410767 16.54202079772949 2.804740190505981 18 2.804740190505981 C 19.45797920227051 2.804740190505981 20.85742950439453 3.250290155410767 22.04704093933105 4.093220233917236 L 30.58247947692871 10.14122009277344 C 31.81650924682617 11.01562023162842 32.71749114990234 12.23754024505615 33.18804168701172 13.67489051818848 C 33.6585807800293 15.11223983764648 33.65462112426758 16.63042068481445 33.17657852172852 18.0652904510498 L 29.99872016906738 27.60386085510254 C 29.04471015930176 30.46738052368164 26.37583923339844 32.39130020141602 23.35758018493652 32.39130020141602 Z" stroke="none"/>
    <path d="M 18 3.804750442504883 C 16.75028991699219 3.804750442504883 15.5507698059082 4.186649322509766 14.5311107635498 4.909149169921875 L 5.995670318603516 10.95714950561523 C 4.937929153442383 11.70664024353027 4.165660858154297 12.75399971008301 3.7623291015625 13.98602104187012 C 3.3590087890625 15.21803092956543 3.362411499023438 16.51931953430176 3.772159576416016 17.74921035766602 L 6.950010299682617 27.28778076171875 C 7.767740249633789 29.74221992492676 10.05533981323242 31.39130020141602 12.64241981506348 31.39130020141602 L 23.35758018493652 31.39130020141602 C 25.94466018676758 31.39130020141602 28.23225975036621 29.74221992492676 29.04997062683105 27.28778076171875 L 32.22782897949219 17.74921035766602 C 32.63758087158203 16.51931953430176 32.6409797668457 15.21803092956543 32.2376594543457 13.98600959777832 C 31.8343391418457 12.75399971008301 31.06205940246582 11.70664024353027 30.00432014465332 10.95714950561523 L 21.46889114379883 4.909149169921875 C 20.4492301940918 4.186649322509766 19.24971008300781 3.804750442504883 18 3.804750442504883 M 18 1.80474853515625 C 19.6198673248291 1.80474853515625 21.2397346496582 2.29559326171875 22.62519073486328 3.277290344238281 L 31.16061973571777 9.325290679931641 C 34.03498077392578 11.36198043823242 35.2387809753418 15.0391902923584 34.12530136108398 18.38137054443359 L 30.94744110107422 27.91994094848633 C 29.85890007019043 31.18728065490723 26.80149078369141 33.39130020141602 23.35758018493652 33.39130020141602 L 12.64241981506348 33.39130020141602 C 9.198509216308594 33.39130020141602 6.14109992980957 31.18728065490723 5.052549362182617 27.91994094848633 L 1.874691009521484 18.38137054443359 C 0.7612113952636719 15.0391902923584 1.965019226074219 11.36198043823242 4.839370727539063 9.325290679931641 L 13.37480926513672 3.277290344238281 C 14.7602653503418 2.29559326171875 16.3801326751709 1.80474853515625 18 1.80474853515625 Z" stroke="none" fill="#e6cb1b"/>
  </g>
</svg>
