<svg xmlns="http://www.w3.org/2000/svg" width="72" height="72" viewBox="0 0 72 72">
  <g id="Layer_2" data-name="Layer 2" transform="translate(0.253 0.253)" opacity="0.5">
    <g id="invisible_box" data-name="invisible box">
      <rect id="Прямоугольник_183" data-name="Прямоугольник 183" width="72" height="72" transform="translate(-0.253 -0.253)" fill="none"/>
    </g>
    <g id="Q3_icons" data-name="Q3 icons" transform="translate(3.113 2.963)">
      <path id="Контур_24" data-name="Контур 24" d="M64.513,9.6V19.879a2.979,2.979,0,0,1-2.979,2.979H51.108a2.979,2.979,0,0,1-2.979-3.426A3.128,3.128,0,0,1,51.257,16.9h3.426A26.81,26.81,0,0,0,8.063,32.092a2.979,2.979,0,0,1-2.979,2.681h0A2.979,2.979,0,0,1,2.1,31.5,32.768,32.768,0,0,1,58.556,12.283V9.453a2.979,2.979,0,0,1,3.426-2.979A3.128,3.128,0,0,1,64.513,9.6Z" transform="translate(-2.09 -1.989)"/>
      <path id="Контур_25" data-name="Контур 25" d="M4,49.172V38.895a2.979,2.979,0,0,1,2.979-2.979H17.405a2.979,2.979,0,0,1,2.979,3.426,3.128,3.128,0,0,1-3.128,2.532H13.831a26.81,26.81,0,0,0,46.62-15.193A2.979,2.979,0,0,1,63.43,24h0a2.979,2.979,0,0,1,2.979,3.277A32.768,32.768,0,0,1,9.958,46.491v2.83A2.979,2.979,0,0,1,6.532,52.3,3.128,3.128,0,0,1,4,49.172Z" transform="translate(-1.155 8.784)"/>
      <path id="Контур_26" data-name="Контур 26" d="M28.48,27.384c-5.213-1.043-5.213-1.936-5.213-2.681s.3-.894.745-1.341a5.064,5.064,0,0,1,2.681-.6,9.384,9.384,0,0,1,4.915,1.341,2.681,2.681,0,0,0,4.022-.745,2.83,2.83,0,0,0-.6-4.17A13.554,13.554,0,0,0,30.416,17.4V13.979a2.979,2.979,0,1,0-5.958,0v3.277C19.99,18,17.011,20.979,17.011,25s4.915,7.3,9.681,8.192,4.915,1.936,4.915,2.681-1.638,2.085-3.724,2.085h0a9.979,9.979,0,0,1-6.107-1.936,2.979,2.979,0,0,0-4.17.894,2.681,2.681,0,0,0,.447,3.873,16.235,16.235,0,0,0,6.4,2.681v3.277a2.979,2.979,0,1,0,5.958,0V43.47a9.384,9.384,0,0,0,4.468-1.936,7.3,7.3,0,0,0,2.979-5.958h0C37.863,30.065,32.8,28.278,28.48,27.384Z" transform="translate(5.197 2.421)"/>
    </g>
  </g>
</svg>
