<svg xmlns="http://www.w3.org/2000/svg" width="72" height="72" viewBox="0 0 72 72">
  <g id="Layer_2" data-name="Layer 2" opacity="0.5">
    <g id="invisible_box" data-name="invisible box">
      <rect id="Прямоугольник_184" data-name="Прямоугольник 184" width="72" height="72" fill="none"/>
    </g>
    <g id="icons_Q2" data-name="icons Q2" transform="translate(9 4.5)">
      <path id="Контур_27" data-name="Контур 27" d="M33,3A16.5,16.5,0,1,0,49.5,19.5,16.5,16.5,0,0,0,33,3Zm0,27A10.5,10.5,0,1,1,43.5,19.5,10.5,10.5,0,0,1,33,30ZM58.65,49.5A46.95,46.95,0,0,0,33,42,48.15,48.15,0,0,0,7.35,49.35L6,50.25V63a3,3,0,0,0,3,3H57a3,3,0,0,0,3-3V50.25ZM54,60H12V53.55A42.6,42.6,0,0,1,33,48a41.25,41.25,0,0,1,21,5.7Z" transform="translate(-6 -3)"/>
    </g>
  </g>
</svg>
